<mxfile host="app.diagrams.net" agent="Mozilla/5.0 (Windows NT 10.0; Win64; x64) AppleWebKit/537.36 (KHTML, like Gecko) Chrome/130.0.0.0 Safari/537.36" version="24.8.3">
  <diagram name="Страница — 1" id="2z9YlmGzIrOjie0QyuiV">
    <mxGraphModel dx="1400" dy="1865" grid="1" gridSize="10" guides="1" tooltips="1" connect="1" arrows="1" fold="1" page="1" pageScale="1" pageWidth="827" pageHeight="1169" math="0" shadow="0">
      <root>
        <mxCell id="0" />
        <mxCell id="1" parent="0" />
        <mxCell id="OShW3Rb2TY1rtvR5UoOf-1" value="НАЧАЛО" style="ellipse;whiteSpace=wrap;html=1;" vertex="1" parent="1">
          <mxGeometry x="350" y="20" width="120" height="80" as="geometry" />
        </mxCell>
        <mxCell id="OShW3Rb2TY1rtvR5UoOf-50" style="edgeStyle=orthogonalEdgeStyle;rounded=0;orthogonalLoop=1;jettySize=auto;html=1;exitX=0.5;exitY=1;exitDx=0;exitDy=0;entryX=0.5;entryY=0;entryDx=0;entryDy=0;" edge="1" parent="1" source="OShW3Rb2TY1rtvR5UoOf-2" target="OShW3Rb2TY1rtvR5UoOf-7">
          <mxGeometry relative="1" as="geometry" />
        </mxCell>
        <mxCell id="OShW3Rb2TY1rtvR5UoOf-2" value="ВВОД N" style="shape=parallelogram;perimeter=parallelogramPerimeter;whiteSpace=wrap;html=1;fixedSize=1;" vertex="1" parent="1">
          <mxGeometry x="350" y="140" width="120" height="60" as="geometry" />
        </mxCell>
        <mxCell id="OShW3Rb2TY1rtvR5UoOf-4" value="" style="endArrow=classic;html=1;rounded=0;exitX=0.5;exitY=1;exitDx=0;exitDy=0;entryX=0.5;entryY=0;entryDx=0;entryDy=0;" edge="1" parent="1" source="OShW3Rb2TY1rtvR5UoOf-1" target="OShW3Rb2TY1rtvR5UoOf-2">
          <mxGeometry width="50" height="50" relative="1" as="geometry">
            <mxPoint x="390" y="300" as="sourcePoint" />
            <mxPoint x="440" y="250" as="targetPoint" />
          </mxGeometry>
        </mxCell>
        <mxCell id="OShW3Rb2TY1rtvR5UoOf-6" value="" style="ellipse;shape=cloud;whiteSpace=wrap;html=1;" vertex="1" parent="1">
          <mxGeometry x="190" y="170" width="120" height="80" as="geometry" />
        </mxCell>
        <mxCell id="OShW3Rb2TY1rtvR5UoOf-19" style="edgeStyle=orthogonalEdgeStyle;rounded=0;orthogonalLoop=1;jettySize=auto;html=1;exitX=1;exitY=0.5;exitDx=0;exitDy=0;entryX=0.5;entryY=0;entryDx=0;entryDy=0;" edge="1" parent="1" source="OShW3Rb2TY1rtvR5UoOf-7" target="OShW3Rb2TY1rtvR5UoOf-10">
          <mxGeometry relative="1" as="geometry" />
        </mxCell>
        <mxCell id="OShW3Rb2TY1rtvR5UoOf-7" value="N &amp;lt; 0" style="rhombus;whiteSpace=wrap;html=1;" vertex="1" parent="1">
          <mxGeometry x="370" y="230" width="80" height="80" as="geometry" />
        </mxCell>
        <mxCell id="OShW3Rb2TY1rtvR5UoOf-36" style="edgeStyle=orthogonalEdgeStyle;rounded=0;orthogonalLoop=1;jettySize=auto;html=1;exitX=0.5;exitY=1;exitDx=0;exitDy=0;entryX=0;entryY=0.5;entryDx=0;entryDy=0;" edge="1" parent="1" source="OShW3Rb2TY1rtvR5UoOf-8" target="OShW3Rb2TY1rtvR5UoOf-35">
          <mxGeometry relative="1" as="geometry">
            <Array as="points">
              <mxPoint x="220" y="600" />
              <mxPoint x="490" y="600" />
              <mxPoint x="490" y="660" />
            </Array>
          </mxGeometry>
        </mxCell>
        <mxCell id="OShW3Rb2TY1rtvR5UoOf-8" value="ЧИСЛО ОТРИЦАТЕЛЬНОЕ" style="shape=parallelogram;perimeter=parallelogramPerimeter;whiteSpace=wrap;html=1;fixedSize=1;" vertex="1" parent="1">
          <mxGeometry x="150" y="330" width="140" height="80" as="geometry" />
        </mxCell>
        <mxCell id="OShW3Rb2TY1rtvR5UoOf-21" style="edgeStyle=orthogonalEdgeStyle;rounded=0;orthogonalLoop=1;jettySize=auto;html=1;exitX=0;exitY=0.5;exitDx=0;exitDy=0;entryX=0.5;entryY=0;entryDx=0;entryDy=0;" edge="1" parent="1" source="OShW3Rb2TY1rtvR5UoOf-10" target="OShW3Rb2TY1rtvR5UoOf-20">
          <mxGeometry relative="1" as="geometry" />
        </mxCell>
        <mxCell id="OShW3Rb2TY1rtvR5UoOf-30" style="edgeStyle=orthogonalEdgeStyle;rounded=0;orthogonalLoop=1;jettySize=auto;html=1;exitX=1;exitY=0.5;exitDx=0;exitDy=0;entryX=0.5;entryY=0;entryDx=0;entryDy=0;" edge="1" parent="1" source="OShW3Rb2TY1rtvR5UoOf-10" target="OShW3Rb2TY1rtvR5UoOf-29">
          <mxGeometry relative="1" as="geometry" />
        </mxCell>
        <mxCell id="OShW3Rb2TY1rtvR5UoOf-10" value="N = 0" style="rhombus;whiteSpace=wrap;html=1;" vertex="1" parent="1">
          <mxGeometry x="560" y="330" width="80" height="80" as="geometry" />
        </mxCell>
        <mxCell id="OShW3Rb2TY1rtvR5UoOf-11" value="" style="endArrow=classic;html=1;rounded=0;exitX=0;exitY=0.5;exitDx=0;exitDy=0;entryX=0.5;entryY=0;entryDx=0;entryDy=0;" edge="1" parent="1" source="OShW3Rb2TY1rtvR5UoOf-7" target="OShW3Rb2TY1rtvR5UoOf-8">
          <mxGeometry width="50" height="50" relative="1" as="geometry">
            <mxPoint x="390" y="410" as="sourcePoint" />
            <mxPoint x="440" y="360" as="targetPoint" />
            <Array as="points">
              <mxPoint x="220" y="270" />
            </Array>
          </mxGeometry>
        </mxCell>
        <mxCell id="OShW3Rb2TY1rtvR5UoOf-12" value="Actor" style="shape=umlActor;verticalLabelPosition=bottom;verticalAlign=top;html=1;outlineConnect=0;" vertex="1" parent="1">
          <mxGeometry x="240" y="210" width="30" height="60" as="geometry" />
        </mxCell>
        <mxCell id="OShW3Rb2TY1rtvR5UoOf-15" value="ДА" style="shape=callout;whiteSpace=wrap;html=1;perimeter=calloutPerimeter;" vertex="1" parent="1">
          <mxGeometry x="230" y="160" width="70" height="50" as="geometry" />
        </mxCell>
        <mxCell id="OShW3Rb2TY1rtvR5UoOf-16" value="Actor" style="shape=umlActor;verticalLabelPosition=bottom;verticalAlign=top;html=1;outlineConnect=0;" vertex="1" parent="1">
          <mxGeometry x="530" y="210" width="30" height="60" as="geometry" />
        </mxCell>
        <mxCell id="OShW3Rb2TY1rtvR5UoOf-17" value="НЕТ" style="shape=callout;whiteSpace=wrap;html=1;perimeter=calloutPerimeter;" vertex="1" parent="1">
          <mxGeometry x="520" y="160" width="70" height="50" as="geometry" />
        </mxCell>
        <mxCell id="OShW3Rb2TY1rtvR5UoOf-37" style="edgeStyle=orthogonalEdgeStyle;rounded=0;orthogonalLoop=1;jettySize=auto;html=1;exitX=0.5;exitY=1;exitDx=0;exitDy=0;entryX=0.5;entryY=0;entryDx=0;entryDy=0;" edge="1" parent="1" source="OShW3Rb2TY1rtvR5UoOf-20" target="OShW3Rb2TY1rtvR5UoOf-34">
          <mxGeometry relative="1" as="geometry" />
        </mxCell>
        <mxCell id="OShW3Rb2TY1rtvR5UoOf-20" value="&lt;font style=&quot;font-size: 24px;&quot;&gt;f=1&lt;/font&gt;" style="rounded=0;whiteSpace=wrap;html=1;" vertex="1" parent="1">
          <mxGeometry x="430" y="420" width="120" height="60" as="geometry" />
        </mxCell>
        <mxCell id="OShW3Rb2TY1rtvR5UoOf-22" value="ДА" style="text;html=1;align=center;verticalAlign=middle;whiteSpace=wrap;rounded=0;" vertex="1" parent="1">
          <mxGeometry x="480" y="340" width="60" height="30" as="geometry" />
        </mxCell>
        <mxCell id="OShW3Rb2TY1rtvR5UoOf-24" value="" style="shape=image;html=1;verticalLabelPosition=bottom;verticalAlign=top;imageAspect=1;aspect=fixed;image=img/clipart/Gear_128x128.png" vertex="1" parent="1">
          <mxGeometry x="527.74" y="200" width="34.52" height="40.5" as="geometry" />
        </mxCell>
        <mxCell id="OShW3Rb2TY1rtvR5UoOf-26" value="" style="verticalLabelPosition=bottom;verticalAlign=top;html=1;shape=mxgraph.basic.smiley" vertex="1" parent="1">
          <mxGeometry x="235" y="190" width="40" height="40" as="geometry" />
        </mxCell>
        <mxCell id="OShW3Rb2TY1rtvR5UoOf-39" style="edgeStyle=orthogonalEdgeStyle;rounded=0;orthogonalLoop=1;jettySize=auto;html=1;exitX=0;exitY=0.5;exitDx=0;exitDy=0;" edge="1" parent="1" source="OShW3Rb2TY1rtvR5UoOf-29">
          <mxGeometry relative="1" as="geometry">
            <mxPoint x="490" y="520" as="targetPoint" />
            <Array as="points">
              <mxPoint x="630" y="490" />
              <mxPoint x="491" y="490" />
              <mxPoint x="491" y="500" />
            </Array>
          </mxGeometry>
        </mxCell>
        <mxCell id="OShW3Rb2TY1rtvR5UoOf-40" style="edgeStyle=orthogonalEdgeStyle;rounded=0;orthogonalLoop=1;jettySize=auto;html=1;exitX=0.5;exitY=1;exitDx=0;exitDy=0;entryX=0.5;entryY=0;entryDx=0;entryDy=0;" edge="1" parent="1" source="OShW3Rb2TY1rtvR5UoOf-29" target="OShW3Rb2TY1rtvR5UoOf-32">
          <mxGeometry relative="1" as="geometry" />
        </mxCell>
        <mxCell id="OShW3Rb2TY1rtvR5UoOf-29" value="&lt;font style=&quot;font-size: 24px;&quot;&gt;i=1;&amp;lt;=n;i++&lt;/font&gt;" style="shape=hexagon;perimeter=hexagonPerimeter2;whiteSpace=wrap;html=1;fixedSize=1;" vertex="1" parent="1">
          <mxGeometry x="630" y="420" width="160" height="60" as="geometry" />
        </mxCell>
        <mxCell id="OShW3Rb2TY1rtvR5UoOf-31" value="НЕТ" style="text;html=1;align=center;verticalAlign=middle;whiteSpace=wrap;rounded=0;" vertex="1" parent="1">
          <mxGeometry x="670" y="340" width="60" height="30" as="geometry" />
        </mxCell>
        <mxCell id="OShW3Rb2TY1rtvR5UoOf-33" style="edgeStyle=orthogonalEdgeStyle;rounded=0;orthogonalLoop=1;jettySize=auto;html=1;exitX=1;exitY=0.5;exitDx=0;exitDy=0;entryX=1;entryY=0.5;entryDx=0;entryDy=0;" edge="1" parent="1" source="OShW3Rb2TY1rtvR5UoOf-32" target="OShW3Rb2TY1rtvR5UoOf-29">
          <mxGeometry relative="1" as="geometry">
            <Array as="points">
              <mxPoint x="820" y="550" />
              <mxPoint x="820" y="450" />
            </Array>
          </mxGeometry>
        </mxCell>
        <mxCell id="OShW3Rb2TY1rtvR5UoOf-32" value="&lt;font style=&quot;font-size: 24px;&quot;&gt;f=f*i&lt;/font&gt;" style="rounded=0;whiteSpace=wrap;html=1;" vertex="1" parent="1">
          <mxGeometry x="650" y="520" width="120" height="60" as="geometry" />
        </mxCell>
        <mxCell id="OShW3Rb2TY1rtvR5UoOf-38" style="edgeStyle=orthogonalEdgeStyle;rounded=0;orthogonalLoop=1;jettySize=auto;html=1;exitX=0.5;exitY=1;exitDx=0;exitDy=0;entryX=0.5;entryY=0;entryDx=0;entryDy=0;" edge="1" parent="1" source="OShW3Rb2TY1rtvR5UoOf-34" target="OShW3Rb2TY1rtvR5UoOf-35">
          <mxGeometry relative="1" as="geometry" />
        </mxCell>
        <mxCell id="OShW3Rb2TY1rtvR5UoOf-34" value="&lt;font style=&quot;font-size: 24px;&quot;&gt;ВЫВОД f&lt;/font&gt;" style="shape=parallelogram;perimeter=parallelogramPerimeter;whiteSpace=wrap;html=1;fixedSize=1;" vertex="1" parent="1">
          <mxGeometry x="410" y="520" width="160" height="60" as="geometry" />
        </mxCell>
        <mxCell id="OShW3Rb2TY1rtvR5UoOf-35" value="&lt;font style=&quot;font-size: 24px;&quot;&gt;КОНЕЦ&lt;/font&gt;" style="ellipse;whiteSpace=wrap;html=1;" vertex="1" parent="1">
          <mxGeometry x="430" y="620" width="120" height="80" as="geometry" />
        </mxCell>
        <mxCell id="OShW3Rb2TY1rtvR5UoOf-41" value="" style="image;html=1;image=img/lib/clip_art/computers/Secure_System_128x128.png" vertex="1" parent="1">
          <mxGeometry x="550" y="100" width="80" height="80" as="geometry" />
        </mxCell>
        <mxCell id="OShW3Rb2TY1rtvR5UoOf-42" value="" style="image;html=1;image=img/lib/clip_art/computers/Network_128x128.png" vertex="1" parent="1">
          <mxGeometry x="610" y="50" width="80" height="80" as="geometry" />
        </mxCell>
        <mxCell id="OShW3Rb2TY1rtvR5UoOf-43" value="" style="image;html=1;image=img/lib/clip_art/computers/Workstation_128x128.png" vertex="1" parent="1">
          <mxGeometry x="590" y="80" width="80" height="80" as="geometry" />
        </mxCell>
        <mxCell id="OShW3Rb2TY1rtvR5UoOf-44" value="" style="image;html=1;image=img/lib/clip_art/computers/Stylus_128x128.png" vertex="1" parent="1">
          <mxGeometry x="760" width="80" height="80" as="geometry" />
        </mxCell>
        <mxCell id="OShW3Rb2TY1rtvR5UoOf-45" value="" style="image;html=1;image=img/lib/clip_art/computers/Printer_128x128.png" vertex="1" parent="1">
          <mxGeometry x="655" y="-140" width="290" height="250" as="geometry" />
        </mxCell>
        <mxCell id="OShW3Rb2TY1rtvR5UoOf-46" value="" style="image;html=1;image=img/lib/clip_art/computers/Database_Add_128x128.png" vertex="1" parent="1">
          <mxGeometry x="540" y="30" width="80" height="80" as="geometry" />
        </mxCell>
        <mxCell id="OShW3Rb2TY1rtvR5UoOf-47" value="" style="image;html=1;image=img/lib/clip_art/computers/iMac_128x128.png" vertex="1" parent="1">
          <mxGeometry x="720" y="-130" width="80" height="80" as="geometry" />
        </mxCell>
        <mxCell id="OShW3Rb2TY1rtvR5UoOf-48" value="" style="image;html=1;image=img/lib/clip_art/computers/Virus_128x128.png" vertex="1" parent="1">
          <mxGeometry x="515" y="186.31" width="60" height="67.88" as="geometry" />
        </mxCell>
        <mxCell id="OShW3Rb2TY1rtvR5UoOf-49" value="" style="image;html=1;image=img/lib/clip_art/computers/Virus_128x128.png" vertex="1" parent="1">
          <mxGeometry x="520" y="-90" width="80" height="80" as="geometry" />
        </mxCell>
      </root>
    </mxGraphModel>
  </diagram>
</mxfile>
